<svg width="60.000000" height="60.000000" viewBox="0 0 60 60" fill="none" xmlns="http://www.w3.org/2000/svg" xmlns:xlink="http://www.w3.org/1999/xlink">
	<desc>
			Created with Pixso.
	</desc>
	<defs>
		<clipPath id="clip1_13">
			<rect id="icon_vk" width="60.000000" height="60.000000" fill="white" fill-opacity="0"/>
		</clipPath>
	</defs>
	<rect id="icon_vk" width="60.000000" height="60.000000" fill="#FFFFFF" fill-opacity="0"/>
	<g clip-path="url(#clip1_13)">
		<path id="Исключить" d="M30.95 6.25L29.05 6.25C18.302 6.25 12.928 6.25 9.58896 9.58887C6.25 12.928 6.25 18.302 6.25 29.05L6.25 30.95C6.25 41.698 6.25 47.072 9.58896 50.4111C12.928 53.75 18.302 53.75 29.05 53.75L30.95 53.75C41.698 53.75 47.072 53.75 50.411 50.4111C53.75 47.072 53.75 41.698 53.75 30.95L53.75 29.05C53.75 18.302 53.75 12.928 50.411 9.58887C47.072 6.25 41.698 6.25 30.95 6.25ZM26.9908 34.4307C23.8302 33.6399 19.8401 29.8047 19.6624 20.75L14.25 20.75C14.5068 33.0864 20.6697 40.5 31.4748 40.5L32.0872 40.5L32.0872 33.4421C36.0576 33.8376 39.0599 36.7437 40.2649 40.5L45.875 40.5C44.3342 34.8855 40.2846 31.7815 37.7562 30.5952C40.2846 29.1323 43.8402 25.5737 44.6896 20.75L39.5931 20.75C38.4869 24.6643 35.2083 28.2229 32.0872 28.5591L32.0872 20.75L26.9908 20.75L26.9908 34.4307Z" clip-rule="evenodd" fill="#E4E4E4" fill-opacity="1.000000" fill-rule="evenodd"/>
	</g>
</svg>
